<?xml version="1.0" encoding="UTF-8"?><svg id="Layer_2" xmlns="http://www.w3.org/2000/svg" viewBox="0 0 601.66 141.54"><defs><style>.cls-1{fill:#e1e5c9;}</style></defs><g id="Layer_1-2"><path class="cls-1" d="M61.78,21.88v108.75c0,3.1-1.07,5.67-3.21,7.74-2.14,2.06-4.75,3.09-7.85,3.09s-5.62-1.03-7.57-3.09c-1.95-2.06-2.93-4.64-2.93-7.74V21.88H10.83c-3.09,0-5.67-1.05-7.74-3.15-2.06-2.1-3.09-4.7-3.09-7.79S1.03,5.25,3.09,3.15C5.16,1.05,7.74,0,10.83,0h80.46c3.09,0,5.69,1.07,7.79,3.21s3.15,4.75,3.15,7.85c0,1.55-.28,2.99-.83,4.31s-1.33,2.47-2.32,3.43c-.99.96-2.15,1.71-3.48,2.27s-2.76.83-4.31.83h-29.51Z"/><path class="cls-1" d="M164.56,61.01L201.8,3.98c.96-1.11,2.08-1.97,3.37-2.6,1.29-.63,2.61-1,3.98-1.11,1.36-.11,2.72.06,4.09.5,1.36.44,2.6,1.14,3.7,2.1,2.28,1.92,3.63,4.31,4.03,7.18.4,2.87-.5,5.75-2.71,8.62l-42.66,63.99v47.96c0,3.1-1.07,5.67-3.2,7.74-2.14,2.06-4.75,3.09-7.85,3.09s-5.69-1.03-7.79-3.09c-2.1-2.06-3.15-4.64-3.15-7.74v-47.85l-43.21-63.99c-1.92-2.28-2.78-4.94-2.6-7.96.18-3.02,1.45-5.6,3.81-7.74,1.1-.96,2.36-1.68,3.76-2.16,1.4-.48,2.82-.68,4.25-.61s2.8.44,4.09,1.11c1.29.66,2.41,1.58,3.37,2.76l37.47,56.8Z"/><path class="cls-1" d="M227.55,15.36c-.66-1.4-1-2.84-1-4.31s.28-2.85.83-4.14c.55-1.29,1.34-2.43,2.38-3.43,1.03-.99,2.28-1.79,3.76-2.38,2.8-1.18,5.58-1.2,8.34-.06,2.76,1.14,4.77,3.11,6.02,5.91l41.22,96.04L330.22,6.96c.59-1.4,1.38-2.6,2.38-3.59.99-1,2.14-1.75,3.43-2.27,1.29-.51,2.65-.77,4.09-.77s2.85.26,4.25.77c1.4.59,2.6,1.38,3.59,2.38.99,1,1.77,2.14,2.32,3.43.55,1.29.83,2.67.83,4.14s-.3,2.91-.88,4.31l-51.06,119.03-.11.33c-.88,2.14-2.23,3.78-4.03,4.92-1.81,1.14-3.78,1.75-5.91,1.82h-.77c-.81,0-1.59-.11-2.32-.33-.07,0-.19-.04-.33-.11-1.11-.29-2.14-.77-3.09-1.44-1.7-1.11-2.98-2.72-3.87-4.86L227.55,15.36Z"/><path class="cls-1" d="M412.66,61.01L449.91,3.98c.96-1.11,2.08-1.97,3.37-2.6,1.29-.63,2.61-1,3.98-1.11,1.36-.11,2.72.06,4.09.5,1.36.44,2.6,1.14,3.7,2.1,2.28,1.92,3.63,4.31,4.03,7.18.4,2.87-.5,5.75-2.71,8.62l-42.66,63.99v47.96c0,3.1-1.07,5.67-3.2,7.74-2.14,2.06-4.75,3.09-7.85,3.09s-5.69-1.03-7.79-3.09c-2.1-2.06-3.15-4.64-3.15-7.74v-47.85l-43.21-63.99c-1.92-2.28-2.78-4.94-2.6-7.96.18-3.02,1.45-5.6,3.81-7.74,1.1-.96,2.36-1.68,3.76-2.16,1.4-.48,2.82-.68,4.25-.61s2.8.44,4.09,1.11c1.29.66,2.41,1.58,3.37,2.76l37.47,56.8Z"/><path class="cls-1" d="M538.1,54.38l44.1-50.17c.96-1.11,2.08-1.97,3.37-2.6,1.29-.62,2.63-1,4.03-1.11,1.4-.11,2.8.06,4.2.5,1.4.44,2.65,1.18,3.76,2.21s1.97,2.21,2.6,3.54c.63,1.33,1,2.71,1.11,4.14.11,1.44-.06,2.86-.5,4.26-.44,1.4-1.18,2.65-2.21,3.76l-45.75,52.16,45.97,52.16c1.11,1.18,1.88,2.47,2.32,3.87.44,1.4.63,2.78.55,4.14-.07,1.36-.42,2.71-1.05,4.03-.63,1.33-1.49,2.47-2.6,3.43-1.18,1.03-2.47,1.77-3.87,2.21-1.4.44-2.8.62-4.2.55-1.4-.07-2.75-.42-4.03-1.05-1.29-.62-2.45-1.49-3.48-2.6l-44.32-50.18-43.99,50.18c-2.06,2.28-4.59,3.52-7.57,3.7-2.98.18-5.62-.75-7.9-2.82-1.11-.96-1.99-2.1-2.65-3.43-.66-1.33-1.05-2.69-1.16-4.09-.11-1.4.07-2.78.55-4.14.48-1.36,1.23-2.63,2.26-3.81l45.87-52.16-45.98-52.27c-1.03-1.11-1.77-2.36-2.21-3.76-.44-1.4-.61-2.82-.5-4.25.11-1.44.48-2.82,1.1-4.14.63-1.33,1.49-2.5,2.6-3.54,1.18-1.03,2.45-1.77,3.81-2.21,1.36-.44,2.74-.61,4.14-.5,1.4.11,2.74.5,4.03,1.16,1.29.66,2.45,1.55,3.48,2.65l44.1,50.17Z"/></g></svg>