<?xml version="1.0" encoding="UTF-8"?><svg id="Layer_2" xmlns="http://www.w3.org/2000/svg" viewBox="0 0 695.41 141.71"><defs><style>.cls-1{fill:#e1e5c9;}</style></defs><g id="Layer_1-2"><path class="cls-1" d="M0,14.95V0h121.12v14.95h-51.04v126.76h-16.07V14.95H0Z"/><path class="cls-1" d="M189.93,70.08L131.98.71h19.88l46.39,57.25c.09.09.23.21.42.35.19.14.33.21.42.21l.14.14c0,.09.05.14.14.14l.28-.28c.09,0,.23-.07.42-.21.19-.14.33-.26.42-.35L246.89.71h19.88l-59.08,70.64v70.36h-16.07v-69.37l-1.69-2.26Z"/><path class="cls-1" d="M299.62.71l72.47,110.83c0,.09.09.24.28.42.19.19.33.33.42.42h.85c.09-.09.21-.23.35-.42.14-.19.3-.33.49-.42.56-.94,1.6-2.56,3.1-4.86,1.5-2.3,3.1-4.75,4.79-7.33,1.69-2.58,3.29-5.05,4.79-7.4,1.5-2.35,2.58-3.99,3.24-4.94.19-.19.56-.68,1.13-1.48.56-.8.94-1.29,1.13-1.48L446.83.71h18.89l-92.5,140.58L280.87.71h18.75Z"/><path class="cls-1" d="M537.77,70.08L479.82.71h19.88l46.39,57.25c.09.09.23.21.42.35.19.14.33.21.42.21l.14.14c0,.09.05.14.14.14l.28-.28c.09,0,.23-.07.42-.21.19-.14.33-.26.42-.35L594.74.71h19.88l-59.08,70.64v70.36h-16.07v-69.37l-1.69-2.26Z"/><path class="cls-1" d="M628.72,81.36v-22.56L675.67.71h19.74l-57.95,69.23,57.81,71.77h-15.93l-50.62-60.35Z"/></g></svg>