<?xml version="1.0" encoding="UTF-8"?><svg id="Layer_2" xmlns="http://www.w3.org/2000/svg" viewBox="0 0 579.51 101.52"><defs><style>.cls-1{fill:#ffe000;}</style></defs><g id="Layer_1-2"><path class="cls-1" d="M101.52,0v11.42h-44.98v90.1h-11.42V11.42H0V0h101.52Z"/><path class="cls-1" d="M211.36,0l-46.67,63.31v38.21h-11.42v-38.21c-15.09-20.73-31.3-42.58-46.67-63.31h13.11l39.34,49.63c12.27-15.79,26.51-33.84,38.92-49.63h13.4Z"/><path class="cls-1" d="M340.1,0h13.4c-20.16,35.11-38.5,66.55-58.66,101.52h-13.25c-19.74-34.12-39.34-67.4-58.8-101.52h13.4l52.03,90.38L340.1,0Z"/><path class="cls-1" d="M466.43,0l-46.67,63.31v38.21h-11.42v-38.21c-15.09-20.73-31.3-42.58-46.67-63.31h13.11l39.34,49.63c12.27-15.79,26.51-33.84,38.92-49.63h13.4Z"/><path class="cls-1" d="M579.37,0l-42.58,50.76c13.68,16.5,28.62,34.26,42.73,50.76h-14.81l-35.25-41.88-35.39,41.88h-14.66l42.58-50.76L479.4,0h14.66l35.39,41.88L564.71,0h14.66Z"/></g></svg>