<?xml version="1.0" encoding="UTF-8"?><svg id="Layer_2" xmlns="http://www.w3.org/2000/svg" viewBox="0 0 101.34 101.34"><defs><style>.cls-1{fill:#ffe000;}.cls-2{fill:#333;}</style></defs><g id="Layer_1-2"><rect class="cls-2" width="101.34" height="101.34" rx="9.9" ry="9.9"/><path class="cls-1" d="M87.99,17.46v7.47h-33.07v58.95h-8.4V24.93H13.35v-7.47h74.64Z"/><path class="cls-1" d="M84.73,17.46h8.78c-13.22,22.97-25.24,43.54-38.46,66.42h-8.69C33.43,61.55,20.58,39.78,7.82,17.46h8.78l34.11,59.14,34.02-59.14Z"/><path class="cls-1" d="M83.39,17.46l-27.92,33.21c8.97,10.79,18.77,22.42,28.01,33.21h-9.71l-23.11-27.4-23.2,27.4h-9.61l27.92-33.21L17.85,17.46h9.61l23.2,27.4,23.11-27.4h9.61Z"/></g></svg>